<svg id="Flat" height="512" viewBox="0 0 64 64" width="512" xmlns="http://www.w3.org/2000/svg"><g id="Color_copy"><g><g><g><path d="m16.52 50.288c-1.5.458-3.174-.141-4.019-1.546-.996-1.657-.46-3.807 1.196-4.803.702-.422 1.025-1.264.787-2.046-.564-1.849.477-3.805 2.326-4.369 1.848-.564 3.805.477 4.369 2.326 1.178 3.86-.416 8.009-3.874 10.089-.253.15-.516.267-.785.349z" fill="#da9367"/></g><path d="m21.178 39.849c-.416-1.363-1.591-2.282-2.919-2.447-.128 1.783-.793 3.533-2.003 4.988-.188.226-.399.423-.626.589-.465.341-1.001.552-1.554.634-.112.121-.233.237-.38.326-1.656.996-2.192 3.146-1.196 4.803.844 1.405 2.519 2.004 4.019 1.546.269-.082.533-.198.785-.35 3.459-2.08 5.053-6.229 3.874-10.089z" fill="#c1815d"/></g><g><path d="m26 3h31v6h-31z" fill="#ade8f4"/><path d="m37 6c-1.657 0-3-1.343-3-3h-8v6h31v-3z" fill="#48cae4"/><path d="m19 21 7-12h31l4 12v40h-42z" fill="#e9f1f2"/><g><path d="m57 9 4 12v40h-8v-40z" fill="#d0d8da"/><g><path d="m57 9v12 40h-4v-40z" fill="#b8bebf"/></g></g><g><path d="m35 10c0-1.105 1.791-2 4-2s4 .895 4 2v4c0 1.105-1.791 2-4 2s-4-.895-4-2z" fill="#edb88e"/><ellipse cx="39" cy="10" fill="#fcf2ad" rx="4" ry="2"/></g><path d="m53 21h8v40h-8z" fill="#48cae4"/><path d="m34 9h-8l-7 12v40h8v-40z" fill="#d0d8da"/><path d="m19 21h34v40h-34z" fill="#ade8f4"/><path d="m49 50c-12.15 0-22-9.85-22-22v-7h-8v40h34v-11z" fill="#48cae4"/><path d="m41.268 11c-2.209 0-4-.895-4-2 0-.318.162-.615.427-.882-1.565.272-2.695 1.007-2.695 1.882 0 1.105 1.791 2 4 2 1.573 0 2.92-.458 3.573-1.118-.411.071-.845.118-1.305.118z" fill="#f9dbaf"/><path d="m53 21h4v40h-4z" fill="#00b4d8"/><path d="m61 61h-8l4-6z" fill="#ade8f4"/><g fill="#edb88e"><path d="m28 36c-.551 0-1-.449-1-1 0-.552-.448-1-1-1s-1 .448-1 1c0 1.654 1.346 3 3 3s3-1.346 3-3-1.346-3-3-3c-.551 0-1-.449-1-1s.449-1 1-1 1 .449 1 1c0 .552.448 1 1 1s1-.448 1-1c0-1.654-1.346-3-3-3s-3 1.346-3 3 1.346 3 3 3c.551 0 1 .449 1 1s-.449 1-1 1z"/><path d="m39 35v-4c0-1.654-1.346-3-3-3s-3 1.346-3 3v4c0 1.654 1.346 3 3 3s3-1.346 3-3zm-4 0v-4c0-.551.449-1 1-1s1 .449 1 1v4c0 .551-.449 1-1 1s-1-.449-1-1z"/><path d="m45 29v2c0 .551-.449 1-1 1s-1-.449-1-1v-2c0-.552-.448-1-1-1s-1 .448-1 1v2c0 1.302.839 2.402 2 2.816v3.184c0 .552.448 1 1 1s1-.448 1-1v-3.184c1.161-.414 2-1.514 2-2.816v-2c0-.552-.448-1-1-1s-1 .448-1 1z"/><path d="m26.8 45.6 1.2-1.6v5c0 .552.448 1 1 1s1-.448 1-1v-8c0-.431-.275-.812-.684-.949-.407-.136-.858.005-1.116.349l-2.2 2.933-2.2-2.933c-.258-.344-.707-.485-1.116-.349-.409.137-.684.518-.684.949v8c0 .552.448 1 1 1s1-.448 1-1v-5l1.2 1.6c.377.504 1.223.504 1.6 0z"/><path d="m33 40c-.552 0-1 .448-1 1v8c0 .552.448 1 1 1s1-.448 1-1v-8c0-.552-.448-1-1-1z"/><path d="m37 50h4c.552 0 1-.448 1-1s-.448-1-1-1h-3v-7c0-.552-.448-1-1-1s-1 .448-1 1v8c0 .552.448 1 1 1z"/><path d="m47.259 44.155 2.448-2.448c.391-.391.391-1.023 0-1.414s-1.023-.391-1.414 0l-2.293 2.293v-1.586c0-.552-.448-1-1-1s-1 .448-1 1v8c0 .552.448 1 1 1s1-.448 1-1v-3.056l2.143 3.571c.187.312.518.485.858.485.175 0 .353-.046.514-.143.474-.284.627-.898.343-1.372z"/><path d="m27 26h18c.552 0 1-.448 1-1s-.448-1-1-1h-18c-.552 0-1 .448-1 1s.448 1 1 1z"/></g><path d="m46 52h-20c-.552 0-1 .448-1 1s.448 1 1 1h20c.552 0 1-.448 1-1s-.448-1-1-1z" fill="#da9367"/><path d="m25 31c0-1.3.84-2.41 2-2.82.01.78.05 1.55.14 2.31-.09.15-.14.32-.14.51 0 .29.12.55.32.73.13.77.3 1.52.51 2.26-1.57-.09-2.83-1.4-2.83-2.99z" fill="#da9367"/><path d="m29.26 37.72c-.38.18-.81.28-1.26.28-1.65 0-3-1.35-3-3 0-.55.45-1 1-1s1 .45 1 1 .45 1 1 1c.17 0 .32-.04.46-.11.23.63.5 1.24.8 1.83z" fill="#da9367"/><path d="m26.8 45.6 1.2-1.6v5c0 .552.448 1 1 1s1-.448 1-1v-8c0-.431-.275-.812-.684-.949-.407-.136-.858.005-1.116.349l-2.2 2.933-2.2-2.933c-.258-.344-.707-.485-1.116-.349-.409.137-.684.518-.684.949v8c0 .552.448 1 1 1s1-.448 1-1v-5l1.2 1.6c.377.504 1.223.504 1.6 0z" fill="#da9367"/><path d="m34 44.1v4.9c0 .55-.45 1-1 1s-1-.45-1-1v-7.03c.62.75 1.29 1.46 2 2.13z" fill="#da9367"/><path d="m42 49c0 .55-.45 1-1 1h-4c-.55 0-1-.45-1-1v-3.25c.64.48 1.31.91 2 1.31v.94h1.83c.7.33 1.42.61 2.16.86.01.04.01.09.01.14z" fill="#da9367"/><path d="m45.65 49.75c-.18.16-.4.25-.65.25-.39 0-.73-.22-.89-.55.51.12 1.02.22 1.54.3z" fill="#da9367"/><path d="m27 24v2c-.55 0-1-.45-1-1s.45-1 1-1z" fill="#da9367"/></g><g><path d="m14.014 52.247c-.776 1.363-2.404 2.077-3.983 1.636-1.861-.521-2.949-2.451-2.429-4.313.221-.789-.122-1.623-.833-2.028-1.68-.957-2.266-3.094-1.309-4.773.956-1.679 3.093-2.266 4.773-1.309 3.507 1.997 5.198 6.108 4.112 9.994-.08.283-.192.548-.331.793z" fill="#edb88e"/><path d="m10 46c-2.077 0-3.857-1.267-4.612-3.07-.834 1.653-.247 3.686 1.381 4.612.711.405 1.054 1.239.833 2.028-.52 1.862.567 3.792 2.429 4.313 1.579.442 3.207-.273 3.983-1.636.139-.244.251-.51.33-.793.664-2.375.286-4.83-.904-6.839-.897.853-2.104 1.385-3.44 1.385z" fill="#da9367"/><path d="m12.29 56.967c-1.568 0-2.995-1.061-3.393-2.652-.469-1.875.671-3.775 2.546-4.245.795-.199 1.35-.909 1.35-1.728 0-1.933 1.567-3.5 3.5-3.5s3.5 1.567 3.5 3.5c0 4.036-2.735 7.539-6.65 8.519-.286.072-.572.106-.853.106z" fill="#edb88e"/><g fill="#da9367"><path d="m16.143 51.862c-.285.071-.571.106-.853.105-1.411 0-2.701-.864-3.236-2.195-.182.132-.382.241-.611.298-1.875.469-3.015 2.37-2.546 4.245.397 1.59 1.824 2.652 3.393 2.652.281 0 .567-.034.853-.105 3.331-.833 5.801-3.496 6.466-6.757-.987.816-2.159 1.429-3.466 1.757z"/><path d="m9.603 45.08c-.468.292-.611.91-.318 1.378.502.804.782 1.729.808 2.676.015.542.459.972.999.972h.028c.552-.015.987-.475.972-1.027-.036-1.302-.42-2.575-1.111-3.68-.293-.469-.911-.611-1.378-.319z"/><path d="m16.74 50.942c.262-.486.081-1.093-.405-1.355-.487-.263-1.093-.081-1.355.405-.45.834-1.116 1.535-1.926 2.026-.472.286-.623.901-.336 1.374.188.31.518.481.856.481.177 0 .355-.047.518-.145 1.113-.675 2.029-1.639 2.648-2.786z"/></g><path d="m16.143 51.862c-.285.071-.571.106-.853.105-.57 0-1.117-.147-1.605-.402-.199.165-.408.319-.631.454-.472.286-.623.901-.336 1.374.188.31.518.481.856.481.177 0 .355-.047.518-.145.799-.485 1.492-1.124 2.051-1.867z" fill="#c1815d"/><path d="m9.15 45.922c-.001.183.029.368.134.535.502.804.782 1.729.808 2.676.015.542.459.972.999.972h.028c.552-.015.987-.475.972-1.027-.032-1.138-.344-2.246-.879-3.247-.389.1-.791.169-1.212.169-.29 0-.573-.03-.85-.078z" fill="#c1815d"/><path d="m8.248 60.533c-1.358.784-3.125.578-4.264-.6-1.343-1.389-1.307-3.605.082-4.949.589-.57.714-1.462.305-2.171-.967-1.674-.393-3.815 1.281-4.781s3.815-.393 4.781 1.281c2.018 3.495 1.401 7.897-1.5 10.702-.211.205-.442.378-.685.518z" fill="#f9dbaf"/><path d="m12.402 59.301c-1.109-1.109-1.367-2.868-.524-4.274.994-1.657 3.144-2.195 4.802-1.201.703.422 1.597.311 2.176-.267 1.367-1.367 3.583-1.367 4.95 0s1.367 3.583 0 4.95c-2.854 2.854-7.265 3.397-10.726 1.321-.253-.152-.479-.33-.678-.529z" fill="#f9dbaf"/><path d="m10.52 49.478c.385 2.719-.515 5.535-2.586 7.538-.211.204-.442.377-.686.518-1.333.77-3.056.58-4.197-.542-.152 1.037.148 2.13.933 2.941 1.139 1.179 2.906 1.384 4.264.6.244-.141.474-.313.686-.518 2.855-2.762 3.492-7.069 1.586-10.537z" fill="#edb88e"/><path d="m14.053 56.267c-.252-.151-.479-.329-.677-.528-.414-.414-.708-.918-.872-1.461-.235.219-.453.46-.626.749-.844 1.406-.585 3.165.524 4.274.199.199.425.377.677.528 3.461 2.076 7.872 1.533 10.726-1.321.939-.938 1.216-2.274.866-3.463-2.856 2.764-7.199 3.273-10.618 1.222z" fill="#edb88e"/><path d="m8.061 51.12c-.552.016-.987.477-.971 1.028.027.947-.199 1.887-.655 2.718-.266.484-.088 1.092.396 1.358.153.083.317.123.48.123.354 0 .696-.188.878-.519.626-1.143.938-2.435.9-3.737-.016-.553-.491-1.004-1.028-.971z" fill="#da9367"/><path d="m19.235 56.271c-.908.271-1.874.296-2.793.071-.539-.131-1.078.196-1.209.733-.131.536.197 1.078.733 1.209.572.14 1.157.21 1.741.21.709 0 1.418-.103 2.103-.308.529-.159.829-.716.671-1.245-.159-.527-.716-.828-1.246-.67z" fill="#da9367"/><path d="m15.319 56.892c-.029.061-.069.115-.086.184-.131.536.197 1.078.733 1.209.572.14 1.157.21 1.741.21.709 0 1.418-.103 2.103-.308.411-.123.677-.489.703-.893-1.708.389-3.519.268-5.194-.402z" fill="#c1815d"/></g></g></g></svg>