<svg height="512" viewBox="0 0 64 64" width="512" xmlns="http://www.w3.org/2000/svg"><g id="Layer_32" data-name="Layer 32"><path d="m54.093 50.65c-5.385 9.383-16.514 13.06-24.859 8.213s-10.744-16.383-5.359-25.763c11.802-20.569 35.125-26.1 35.125-26.1s6.9 23.083-4.907 43.65z" fill="#e2734d"/><path d="m37 42c0 10.493-7.611 19-17 19s-17-8.507-17-19c0-23 17-39 17-39s17 16 17 39z" fill="#f98658"/><path d="m50.516 48.566a72.841 72.841 0 0 0 8.162-21.853l-1.96-.4a70.89 70.89 0 0 1 -7.936 21.257c-3.471 6.049-8.8 10.784-13.57 12.062a9.969 9.969 0 0 1 -1.819.313c3.886-2.607 8.493-8.731 11.791-14.476a140.114 140.114 0 0 0 7.408-14.91l-1.841-.783a138.009 138.009 0 0 1 -7.3 14.7c-4.412 7.69-9.851 13.87-12.931 14.7a2.016 2.016 0 0 1 -.538.074 15.886 15.886 0 0 0 7.44 1.748c4.818-1.937 9.712-6.537 13.094-12.432z" fill="#ce5d3e"/><path d="m54.551 25.692c2.4-6.292 4.162-11.794 5.229-15.327-.418-2.132-.78-3.365-.78-3.365a49.544 49.544 0 0 0 -6.224 2.094 90.606 90.606 0 0 0 -9.733 7.3l1.303 1.506a87.717 87.717 0 0 1 8.664-6.562 139.552 139.552 0 0 0 -16.443 20.731l1.68 1.085a136.259 136.259 0 0 1 19.82-24.035c-1.027 3.443-2.853 9.213-5.385 15.861z" fill="#ce5d3e"/><path d="m34.733 27.812h23.492v2h-23.492z" fill="#ce5d3e" transform="matrix(.498 -.867 .867 .498 -1.645 54.784)"/><g fill="#e2734d"><path d="m9 42a67.045 67.045 0 0 1 1.251-12.809l-1.962-.382a69.008 69.008 0 0 0 -1.289 13.191c0 .688.023 1.383.068 2.066l2-.132c-.047-.634-.068-1.281-.068-1.934z"/><path d="m33 42a70.328 70.328 0 0 0 -3.7-22.317l-1.9.634a68.346 68.346 0 0 1 3.6 21.683c0 7.806-3.062 14.855-7.15 17.679 2.019-3.959 3.15-10.895 3.15-17.679a135.383 135.383 0 0 0 -.969-16.12l-1.986.24a133.233 133.233 0 0 1 .955 15.88c0 11.422-3.009 19-5 19a15.467 15.467 0 0 0 7.457-1.945c3.327-3.841 5.543-10.114 5.543-17.055z"/><path d="m20 61c-1.991 0-5-7.578-5-19q0-1 .015-1.985l-2-.03q-.015.998-.015 2.015c0 6.677 1.1 13.5 3.056 17.486-2.48-1.911-4.509-5.366-5.68-8.808l-1.894.644a23.087 23.087 0 0 0 4.418 7.925 15.437 15.437 0 0 0 7.1 1.753z"/><path d="m20 3a46.752 46.752 0 0 0 -3.907 4.369 73.2 73.2 0 0 0 -5.037 11.266l1.887.662a72.188 72.188 0 0 1 3.889-9.051 131.774 131.774 0 0 0 -3.646 24.7l2 .106a125.653 125.653 0 0 1 4.814-28.824 115.541 115.541 0 0 1 3.352 14.929l1.975-.314a113.76 113.76 0 0 0 -3.7-16.151c-1.004-1.104-1.627-1.692-1.627-1.692z"/><path d="m19 16h2v36h-2z"/></g></g></svg>