<svg id="Capa_1" enable-background="new 0 0 512 512" height="512" viewBox="0 0 512 512" width="512" xmlns="http://www.w3.org/2000/svg"><g><g><path d="m243.309 186-108.309 30-135 60v191c0 24.813 20.187 45 45 45h180c24.813 0 45-20.187 45-45v-251z" fill="#f9f4c8"/><path d="m135 216v296h90c24.813 0 45-20.187 45-45v-251l-26.691-30z" fill="#ffe79b"/><path d="m135 246c32.717-19.63 70.155-30 108.31-30h26.69v-2.949c0-29.283-12.902-56.829-35.397-75.575-15.636-13.029-24.603-32.174-24.603-52.527v-24.949h-150v24.949c0 20.353-8.967 39.499-24.603 52.528-22.495 18.746-35.397 46.292-35.397 75.574v62.949h26.691c38.154 0 75.592-10.37 108.309-30z" fill="#fff5f5"/><path d="m234.603 137.477c-15.636-13.03-24.603-32.175-24.603-52.528v-24.949h-75v186c32.717-19.63 70.155-30 108.309-30h26.691v-2.949c0-29.282-12.902-56.828-35.397-75.574z" fill="#dfdef5"/><path d="m215 70h-160c-19.33 0-35-15.67-35-35 0-19.33 15.67-35 35-35h160c19.33 0 35 15.67 35 35 0 19.33-15.67 35-35 35z" fill="#ffdd54"/><path d="m215 0h-80v70h80c19.33 0 35-15.67 35-35 0-19.33-15.67-35-35-35z" fill="#ffb454"/></g><g><path d="m397 0c-63.411 0-115 51.589-115 115s51.589 115 115 115 115-51.589 115-115-51.589-115-115-115zm85 115c0 18.028-5.658 34.75-15.268 48.519l-118.251-118.251c13.769-9.61 30.491-15.268 48.519-15.268 46.869 0 85 38.131 85 85zm-170 0c0-18.028 5.658-34.75 15.268-48.519l118.251 118.251c-13.769 9.61-30.491 15.268-48.519 15.268-46.869 0-85-38.131-85-85z" fill="#ff7c48"/><path d="m482 115c0 18.028-5.658 34.75-15.268 48.519l-69.732-69.732v42.426l48.519 48.519c-13.769 9.61-30.491 15.268-48.519 15.268v30c63.411 0 115-51.589 115-115s-51.589-115-115-115v30c46.869 0 85 38.131 85 85z" fill="#ff4a4a"/></g></g></svg>