<svg id="Capa_1" enable-background="new 0 0 512 512" height="512" viewBox="0 0 512 512" width="512" xmlns="http://www.w3.org/2000/svg"><g><g><g><circle cx="256" cy="256" fill="#cf9875" r="256"/><path d="m256 0c-5.19 0-10.339.173-15.453.478 134.188 7.991 240.548 119.327 240.548 255.522s-106.36 247.531-240.547 255.522c5.113.305 10.262.478 15.452.478 141.385 0 256-114.615 256-256s-114.615-256-256-256z" fill="#c7865b"/><circle cx="256" cy="256" fill="#fff" r="214.793"/></g><g><circle cx="434.221" cy="77.779" fill="#bee49d" r="77.779"/><path d="m434.221 0c-5.291 0-10.458.533-15.453 1.54 35.552 7.167 62.326 38.574 62.326 76.238s-26.774 69.071-62.326 76.238c4.995 1.007 10.161 1.54 15.453 1.54 42.956 0 77.779-34.823 77.779-77.779s-34.823-77.777-77.779-77.777z" fill="#a3d8a4"/><g><path d="m422.347 104.286c-3.033 0-6.066-1.154-8.375-3.462l-14.329-14.33c-3.017-3.017-3.017-7.909.001-10.927 3.017-3.017 7.909-3.016 10.927.001l11.778 11.778 35.524-35.525c3.018-3.016 7.909-3.016 10.928 0 3.017 3.018 3.017 7.909 0 10.928l-38.074 38.074c-2.313 2.308-5.347 3.463-8.38 3.463z" fill="#fff"/></g></g></g><g fill="#cf9875"><path d="m177.889 363.017c4.268 0 7.726-3.459 7.726-7.726s-3.459-7.726-7.726-7.726h-23.58c-4.268 0-7.726 3.459-7.726 7.726v58.18c0 4.268 3.459 7.726 7.726 7.726s7.726-3.459 7.726-7.726v-21.914h13.981c4.268 0 7.726-3.459 7.726-7.726s-3.459-7.726-7.726-7.726h-13.981v-13.087h15.854z"/><path d="m295.436 363.123c4.268 0 7.726-3.459 7.726-7.726 0-4.268-3.459-7.726-7.726-7.726h-24.471c-4.268 0-7.726 3.459-7.726 7.726v58.074c0 4.268 3.459 7.726 7.726 7.726h24.471c4.268 0 7.726-3.459 7.726-7.726s-3.459-7.726-7.726-7.726h-16.744v-13.585h14.94c4.268 0 7.726-3.459 7.726-7.726s-3.459-7.726-7.726-7.726h-14.94v-13.585z"/><path d="m349.45 363.123c4.268 0 7.726-3.459 7.726-7.726 0-4.268-3.459-7.726-7.726-7.726h-24.47c-4.268 0-7.726 3.459-7.726 7.726v58.074c0 4.268 3.459 7.726 7.726 7.726h24.47c4.268 0 7.726-3.459 7.726-7.726s-3.459-7.726-7.726-7.726h-16.743v-13.585h14.94c4.268 0 7.726-3.459 7.726-7.726s-3.459-7.726-7.726-7.726h-14.94v-13.585z"/><path d="m248.172 370.094c0-12.66-10.685-22.959-23.82-22.959h-15.574c-.003 0-.007.001-.01.001s-.006-.001-.01-.001c-4.268 0-7.726 3.459-7.726 7.726v58.61c0 4.268 3.459 7.726 7.726 7.726 4.268 0 7.726-3.459 7.726-7.726v-15.53l18.161 20.634c2.828 3.214 7.713 3.504 10.904.695 3.203-2.819 3.514-7.701.695-10.904l-14.485-16.458c9.519-3.009 16.413-11.648 16.413-21.814zm-23.82 7.505c-1.829 0-4.873.012-7.784.026-.014-2.831-.033-12.067-.041-15.037h7.825c4.535 0 8.367 3.438 8.367 7.506s-3.832 7.505-8.367 7.505z"/><path d="m439.686 267.404c-.041-4.241-3.492-7.652-7.724-7.652-.026 0-.051 0-.076 0-4.268.041-7.693 3.534-7.652 7.801l.333 34.411-26.773-38.767c-1.922-2.783-5.425-3.989-8.657-2.986-3.227 1.006-5.427 3.995-5.427 7.376v58.5c0 4.268 3.459 7.726 7.726 7.726s7.726-3.459 7.726-7.726v-33.715l25.474 36.886c2.255 3.257 6.021 4.64 9.597 3.523 3.645-1.139 6-4.541 6-8.743z"/><path d="m155.388 333.655c.552.095 15.171.148 21.867.111 4.267-.024 7.706-3.502 7.683-7.77-.024-4.253-3.479-7.683-7.725-7.683-.015 0-.029 0-.044 0-3.894.022-8.776.041-12.754.047v-50.881c0-4.268-3.459-7.726-7.726-7.726s-7.726 3.459-7.726 7.726v58.56c0 3.766 2.714 6.982 6.425 7.616z"/><path d="m360.332 275.74c4.268 0 7.726-3.459 7.726-7.726 0-4.268-3.459-7.726-7.726-7.726h-24.471c-4.268 0-7.726 3.459-7.726 7.726v58.074c0 4.268 3.459 7.726 7.726 7.726h24.471c4.268 0 7.726-3.459 7.726-7.726s-3.459-7.726-7.726-7.726h-16.744v-13.585h14.94c4.268 0 7.726-3.459 7.726-7.726s-3.459-7.726-7.726-7.726h-14.94v-13.585z"/><path d="m125.853 289.057h-17.532c-4.268 0-7.726 3.459-7.726 7.726s3.459 7.726 7.726 7.726h8.844c-1.932 7.404-6.95 13.852-16.609 13.852-11.898 0-21.578-9.68-21.578-21.578s9.68-21.578 21.578-21.578c4.325 0 8.495 1.273 12.058 3.681 3.538 2.388 8.34 1.458 10.728-2.076 2.388-3.536 1.459-8.339-2.076-10.728-6.129-4.14-13.291-6.329-20.71-6.329-20.42 0-37.031 16.612-37.031 37.031 0 20.42 16.612 37.031 37.031 37.031 19.444 0 33.023-15.227 33.023-37.031 0-4.268-3.458-7.727-7.726-7.727z"/><path d="m243.067 259.753c-4.268 0-7.726 3.459-7.726 7.726v40.288c0 2.693-.773 6.173-6.795 9.206-1.856.935-3.875 1.389-6.173 1.389-.007 0-.015 0-.023 0-2.509-.003-4.685-.617-6.654-1.874-4.671-2.984-5.628-5.628-5.628-8.679v-40.33c0-4.268-3.459-7.726-7.726-7.726s-7.726 3.459-7.726 7.726v40.33c0 8.989 4.293 16.291 12.761 21.701 4.46 2.849 9.491 4.298 14.954 4.305h.042c4.704 0 9.12-1.023 13.126-3.041 12.642-6.368 15.296-16.026 15.296-23.007v-40.288c-.001-4.268-3.46-7.726-7.728-7.726z"/><path d="m304.952 259.753h-32.368c-4.268 0-7.726 3.459-7.726 7.726s3.459 7.726 7.726 7.726h8.392v50.883c0 4.268 3.459 7.726 7.726 7.726s7.726-3.459 7.726-7.726v-50.883h8.523c4.268 0 7.726-3.459 7.726-7.726s-3.458-7.726-7.725-7.726z"/></g><g><g><path d="m222.094 119.491c-4.268 0-7.726-3.459-7.726-7.726v-29.77c0-4.268 3.459-7.726 7.726-7.726s7.726 3.459 7.726 7.726v29.77c.001 4.267-3.458 7.726-7.726 7.726z" fill="#e0bba4"/></g><path d="m256 144.526h-17.407c-13.379 0-24.225-10.846-24.225-24.225v-16.737c0-2.209 1.791-4 4-4h13.407c13.379 0 24.225 10.846 24.225 24.225z" fill="#cf9875"/><g><path d="m289.905 119.491c-4.268 0-7.726-3.459-7.726-7.726v-29.77c0-4.268 3.459-7.726 7.726-7.726s7.726 3.459 7.726 7.726v29.77c.001 4.267-3.458 7.726-7.726 7.726z" fill="#e0bba4"/></g><g fill="#cf9875"><path d="m256 144.526h17.407c13.379 0 24.225-10.846 24.225-24.225v-16.737c0-2.209-1.791-4-4-4h-13.407c-13.379 0-24.225 10.846-24.225 24.225z"/><path d="m256 220.394h-17.407c-13.379 0-24.225-10.846-24.225-24.225v-16.737c0-2.209 1.791-4 4-4h13.407c13.379 0 24.225 10.846 24.225 24.225z"/><path d="m256 220.394h17.407c13.379 0 24.225-10.846 24.225-24.225v-16.737c0-2.209-1.791-4-4-4h-13.407c-13.379 0-24.225 10.846-24.225 24.225z"/></g><g><path d="m256 253.329c-4.268 0-7.726-3.459-7.726-7.726v-179.061c0-4.268 3.459-7.726 7.726-7.726s7.726 3.459 7.726 7.726v179.06c0 4.268-3.458 7.727-7.726 7.727z" fill="#e0bba4"/></g></g></g></svg>